<?xml version="1.0" encoding="UTF-8"?>
<svg xmlns="http://www.w3.org/2000/svg" viewBox="-220 -220 440 440">
  <rect x="-220" y="-220" width="440 height="440" fill="#111"/>
  <path d="M479.89,-6.52 L478.80,-5.43 L474.46,-5.43 L473.37,-4.35 L467.93,-4.35 L459.24,0.00 L457.07,0.00 L452.72,3.26 L449.46,3.26 L446.20,6.52 L441.85,8.70 L441.85,9.78 L439.67,10.87 L436.41,14.13 L434.24,18.48 L434.24,30.43 L437.50,34.78 L437.50,35.87 L441.85,40.22 L444.02,40.22 L445.11,41.30 L447.28,41.30 L451.63,43.48 L459.24,43.48 L460.33,42.39 L464.67,42.39 L465.76,41.30 L470.11,41.30 L471.20,40.22 L476.63,40.22 L482.07,36.96 L484.24,36.96 L486.41,35.87 L490.76,32.61 L494.02,32.61 L494.02,31.52 L496.20,30.43 L503.80,22.83 L504.89,20.65 L504.89,18.48 L505.98,17.39 L505.98,7.61 L504.89,6.52 L504.89,4.35 L501.63,1.09 L501.63,0.00 L497.28,-4.35 L494.02,-4.35 L492.93,-5.43 L488.59,-5.43 L487.50,-6.52 Z" fill="#3a4250" fill-rule="evenodd" stroke="white" stroke-width="1.5"/>
  <path d="M-463.59,-28.26 L-471.20,-27.17 L-486.41,-19.57 L-489.67,-19.57 L-499.46,-13.04 L-503.80,-11.96 L-511.41,-5.43 L-515.76,-4.35 L-532.07,10.87 L-534.24,10.87 L-549.46,26.09 L-561.41,41.30 L-577.72,69.57 L-592.93,109.78 L-592.93,116.30 L-595.11,121.74 L-595.11,136.96 L-590.76,146.74 L-578.80,153.26 L-570.11,153.26 L-558.15,146.74 L-551.63,134.78 L-547.28,121.74 L-547.28,116.30 L-539.67,98.91 L-537.50,89.13 L-530.98,76.09 L-525.54,69.57 L-524.46,65.22 L-515.76,53.26 L-509.24,47.83 L-505.98,42.39 L-484.24,25.00 L-469.02,17.39 L-447.28,9.78 L-440.76,4.35 L-435.33,-8.70 L-436.41,-16.30 L-439.67,-22.83 L-448.37,-28.26 Z" fill="#3a4250" fill-rule="evenodd" stroke="white" stroke-width="1.5"/>
  <path d="M-291.85,-46.74 L-300.54,-42.39 L-303.80,-42.39 L-311.41,-33.70 L-313.59,-28.26 L-313.59,-20.65 L-311.41,-16.30 L-288.59,5.43 L-277.72,18.48 L-276.63,22.83 L-271.20,29.35 L-261.41,48.91 L-252.72,75.00 L-245.11,84.78 L-236.41,88.04 L-228.80,88.04 L-222.28,85.87 L-213.59,78.26 L-209.24,70.65 L-208.15,61.96 L-212.50,45.65 L-215.76,40.22 L-215.76,35.87 L-223.37,22.83 L-223.37,19.57 L-247.28,-16.30 L-264.67,-34.78 L-278.80,-44.57 Z" fill="#3a4250" fill-rule="evenodd" stroke="white" stroke-width="1.5"/>
  <path d="M-113.59,-107.61 L-137.50,-100.00 L-152.72,-90.22 L-163.59,-79.35 L-174.46,-63.04 L-177.72,-52.17 L-179.89,-50.00 L-184.24,-35.87 L-186.41,-18.48 L-186.41,8.70 L-184.24,16.30 L-184.24,25.00 L-178.80,39.13 L-175.54,43.48 L-175.54,46.74 L-160.33,63.04 L-151.63,69.57 L-137.50,75.00 L-122.28,78.26 L-104.89,77.17 L-88.59,70.65 L-84.24,70.65 L-74.46,63.04 L-72.28,63.04 L-61.41,52.17 L-47.28,32.61 L-46.20,27.17 L-40.76,17.39 L-35.33,-6.52 L-34.24,-19.57 L-34.24,-34.78 L-38.59,-61.96 L-46.20,-75.00 L-46.20,-78.26 L-53.80,-88.04 L-69.02,-100.00 L-85.33,-106.52 Z M-108.15,-67.39 L-100.54,-68.48 L-90.76,-66.30 L-79.89,-56.52 L-75.54,-48.91 L-73.37,-36.96 L-73.37,-13.04 L-75.54,-6.52 L-75.54,1.09 L-86.41,22.83 L-99.46,33.70 L-109.24,36.96 L-122.28,36.96 L-130.98,33.70 L-138.59,26.09 L-142.93,16.30 L-146.20,0.00 L-145.11,-17.39 L-138.59,-42.39 L-130.98,-53.26 L-130.98,-55.43 L-121.20,-64.13 Z" fill="#3a4250" fill-rule="evenodd" stroke="white" stroke-width="1.5"/>
  <path d="M339.67,-110.87 L326.63,-108.70 L303.80,-100.00 L286.41,-88.04 L271.20,-72.83 L271.20,-70.65 L265.76,-65.22 L263.59,-58.70 L257.07,-50.00 L255.98,-44.57 L249.46,-33.70 L241.85,-10.87 L240.76,1.09 L237.50,11.96 L235.33,32.61 L236.41,60.87 L240.76,84.78 L248.37,102.17 L258.15,116.30 L271.20,127.17 L278.80,131.52 L302.72,139.13 L323.37,139.13 L339.67,134.78 L361.41,123.91 L378.80,108.70 L391.85,91.30 L401.63,71.74 L409.24,47.83 L409.24,41.30 L416.85,7.61 L416.85,-44.57 L409.24,-69.57 L401.63,-82.61 L394.02,-90.22 L392.93,-93.48 L378.80,-103.26 L361.41,-109.78 Z M336.41,-70.65 L349.46,-70.65 L361.41,-65.22 L372.28,-51.09 L376.63,-31.52 L376.63,-5.43 L372.28,20.65 L372.28,30.43 L364.67,51.09 L364.67,55.43 L351.63,77.17 L339.67,89.13 L330.98,94.57 L321.20,97.83 L309.24,98.91 L295.11,94.57 L280.98,78.26 L275.54,57.61 L276.63,35.87 L278.80,30.43 L283.15,26.09 L294.02,25.00 L295.11,32.61 L292.93,43.48 L295.11,51.09 L299.46,55.43 L303.80,56.52 L316.85,55.43 L332.07,40.22 L337.50,23.91 L336.41,10.87 L330.98,-1.09 L316.85,-10.87 L302.72,-11.96 L287.50,-7.61 L284.24,-10.87 L284.24,-13.04 L287.50,-23.91 L294.02,-35.87 L309.24,-56.52 L321.20,-66.30 L324.46,-66.30 L332.07,-70.65 Z" fill="#3a4250" fill-rule="evenodd" stroke="white" stroke-width="1.5"/>
  <path d="M-5.98,-144.57 L-16.85,-139.13 L-23.37,-130.43 L-24.46,-122.83 L-21.20,-111.96 L3.80,-66.30 L12.50,-58.70 L30.98,-58.70 L38.59,-65.22 L41.85,-72.83 L41.85,-80.43 L38.59,-90.22 L15.76,-133.70 L7.07,-142.39 L2.72,-144.57 Z" fill="#3a4250" fill-rule="evenodd" stroke="white" stroke-width="1.5"/>
  <path d="M171.20,-172.83 L165.76,-170.65 L157.07,-161.96 L155.98,-157.61 L153.80,-156.52 L140.76,-136.96 L140.76,-134.78 L133.15,-126.09 L133.15,-122.83 L125.54,-110.87 L125.54,-92.39 L133.15,-86.96 L139.67,-85.87 L151.63,-89.13 L161.41,-96.74 L185.33,-127.17 L186.41,-131.52 L192.93,-141.30 L195.11,-148.91 L195.11,-159.78 L192.93,-165.22 L185.33,-171.74 Z" fill="#3a4250" fill-rule="evenodd" stroke="white" stroke-width="1.5"/>
  <path d="M-400.54,-181.52 L-409.24,-178.26 L-415.76,-171.74 L-417.93,-157.61 L-415.76,-145.65 L-407.07,-119.57 L-407.07,-111.96 L-399.46,-76.09 L-397.28,-52.17 L-396.20,14.13 L-399.46,34.78 L-399.46,46.74 L-407.07,75.00 L-408.15,84.78 L-424.46,119.57 L-435.33,132.61 L-454.89,147.83 L-460.33,150.00 L-469.02,158.70 L-471.20,165.22 L-469.02,176.09 L-454.89,184.78 L-433.15,183.70 L-422.28,177.17 L-419.02,177.17 L-400.54,160.87 L-387.50,144.57 L-377.72,127.17 L-377.72,123.91 L-370.11,108.70 L-370.11,103.26 L-362.50,81.52 L-362.50,75.00 L-354.89,40.22 L-352.72,-11.96 L-354.89,-69.57 L-363.59,-126.09 L-370.11,-147.83 L-370.11,-153.26 L-377.72,-168.48 L-377.72,-171.74 L-386.41,-179.35 Z" fill="#3a4250" fill-rule="evenodd" stroke="white" stroke-width="1.5"/>
  <path d="M340.76,-186.96 L279.89,-156.52 L273.37,-146.74 L273.37,-136.96 L279.89,-128.26 L287.50,-125.00 L299.46,-125.00 L303.80,-127.17 L309.24,-127.17 L319.02,-132.61 L327.72,-134.78 L340.76,-142.39 L344.02,-142.39 L355.98,-150.00 L363.59,-157.61 L365.76,-165.22 L365.76,-173.91 L363.59,-179.35 L355.98,-185.87 Z" fill="#3a4250" fill-rule="evenodd" stroke="white" stroke-width="1.5"/>
  <path d="M490.76,-188.04 L485.33,-186.96 L479.89,-181.52 L474.46,-170.65 L472.28,-158.70 L464.67,-140.22 L464.67,-135.87 L459.24,-126.09 L448.37,-93.48 L442.93,-83.70 L434.24,-60.87 L435.33,-47.83 L444.02,-41.30 L454.89,-41.30 L457.07,-43.48 L462.50,-44.57 L471.20,-53.26 L486.41,-73.91 L492.93,-76.09 L512.50,-76.09 L526.63,-73.91 L539.67,-66.30 L547.28,-55.43 L551.63,-34.78 L551.63,-13.04 L549.46,-3.26 L549.46,7.61 L541.85,28.26 L541.85,32.61 L534.24,48.91 L534.24,52.17 L525.54,67.39 L512.50,84.78 L495.11,102.17 L466.85,125.00 L460.33,134.78 L460.33,144.57 L464.67,152.17 L466.85,154.35 L482.07,159.78 L494.02,157.61 L511.41,146.74 L526.63,131.52 L528.80,131.52 L532.07,128.26 L533.15,125.00 L540.76,118.48 L551.63,103.26 L554.89,101.09 L555.98,96.74 L563.59,86.96 L577.72,59.78 L579.89,50.00 L587.50,31.52 L587.50,25.00 L595.11,-5.43 L595.11,-48.91 L585.33,-79.35 L573.37,-95.65 L555.98,-107.61 L534.24,-113.04 L504.89,-113.04 L501.63,-116.30 L517.93,-157.61 L517.93,-173.91 L509.24,-184.78 L504.89,-186.96 Z" fill="#3a4250" fill-rule="evenodd" stroke="white" stroke-width="1.5"/>
  <path d="M78.80,-200.00 L65.76,-193.48 L61.41,-180.43 L61.41,-47.83 L54.89,-42.39 L48.37,-42.39 L21.20,-34.78 L12.50,-34.78 L-13.59,-27.17 L-21.20,-17.39 L-21.20,-8.70 L-16.85,2.17 L-7.07,9.78 L12.50,9.78 L49.46,0.00 L53.80,0.00 L55.98,2.17 L55.98,9.78 L47.28,17.39 L42.93,18.48 L34.24,26.09 L32.07,26.09 L22.28,34.78 L-13.59,71.74 L-13.59,73.91 L-29.89,89.13 L-32.07,93.48 L-58.15,117.39 L-60.33,117.39 L-75.54,132.61 L-82.07,144.57 L-80.98,152.17 L-74.46,161.96 L-64.67,166.30 L-58.15,166.30 L-50.54,161.96 L-47.28,161.96 L-14.67,134.78 L13.59,106.52 L38.59,76.09 L47.28,68.48 L50.54,71.74 L48.37,97.83 L39.67,143.48 L39.67,153.26 L33.15,177.17 L33.15,186.96 L35.33,192.39 L46.20,200.00 L57.07,200.00 L61.41,197.83 L70.11,190.22 L77.72,175.00 L77.72,168.48 L85.33,138.04 L85.33,126.09 L92.93,80.43 L94.02,55.43 L97.28,47.83 L100.54,47.83 L102.72,50.00 L109.24,57.61 L111.41,63.04 L114.67,65.22 L116.85,70.65 L148.37,107.61 L155.98,114.13 L155.98,116.30 L162.50,120.65 L171.20,130.43 L177.72,133.70 L180.98,138.04 L191.85,145.65 L202.72,150.00 L215.76,148.91 L224.46,143.48 L229.89,130.43 L224.46,117.39 L211.41,107.61 L207.07,102.17 L204.89,102.17 L177.72,75.00 L176.63,71.74 L170.11,66.30 L170.11,64.13 L154.89,47.83 L154.89,45.65 L148.37,39.13 L146.20,33.70 L132.07,18.48 L122.28,10.87 L103.80,6.52 L100.54,4.35 L100.54,-8.70 L104.89,-11.96 L116.85,-13.04 L145.11,-20.65 L152.72,-20.65 L184.24,-31.52 L192.93,-39.13 L196.20,-54.35 L191.85,-65.22 L183.15,-70.65 L166.85,-69.57 L154.89,-65.22 L140.76,-63.04 L129.89,-58.70 L120.11,-57.61 L109.24,-53.26 L104.89,-53.26 L101.63,-56.52 L102.72,-182.61 L100.54,-191.30 L97.28,-194.57 L89.67,-198.91 Z" fill="#3a4250" fill-rule="evenodd" stroke="white" stroke-width="1.5"/>
</svg>
